<svg xmlns="http://www.w3.org/2000/svg" xmlns:xlink="http://www.w3.org/1999/xlink" width="500" zoomAndPan="magnify" viewBox="0 0 375 374.999991" height="500" preserveAspectRatio="xMidYMid meet" version="1.0"><defs><g/><clipPath id="263e1f29a4"><path d="M 139 127 L 236 127 L 236 189.21875 L 139 189.21875 Z M 139 127 " clip-rule="nonzero"/></clipPath></defs><path fill="#fff8e2" d="M 187.167969 142.011719 C 188.289062 142.011719 214.585938 141.953125 214.585938 136.808594 C 214.585938 131.664062 188.289062 131.59375 187.167969 131.59375 C 186.046875 131.59375 159.75 131.65625 159.75 136.808594 C 159.75 141.957031 186.046875 142.011719 187.167969 142.011719 Z M 187.167969 133.304688 C 203.347656 133.304688 212.308594 135.53125 212.871094 136.808594 C 212.304688 138.082031 203.34375 140.308594 187.167969 140.308594 C 170.992188 140.308594 161.890625 138.046875 161.449219 136.839844 C 161.890625 135.574219 170.867188 133.308594 187.167969 133.308594 Z M 187.167969 133.304688 " fill-opacity="1" fill-rule="nonzero"/><g clip-path="url(#263e1f29a4)"><path fill="#fff8e2" d="M 210.316406 171.117188 C 211.664062 170.109375 212.9375 169.015625 214.160156 167.84375 C 215.292969 168.882812 216.609375 169.671875 218.015625 170.050781 C 218.875 170.296875 219.757812 170.417969 220.644531 170.417969 C 222.445312 170.417969 224.273438 169.917969 226.042969 168.921875 C 229.691406 166.882812 232.535156 163.042969 233.835938 158.40625 C 236.125 150.417969 233.148438 142.617188 227.070312 140.464844 C 227.171875 139.261719 227.242188 138.054688 227.242188 136.828125 C 227.242188 136.792969 227.210938 136.773438 227.210938 136.738281 C 227.0625 130.441406 206.519531 127.039062 187.175781 127.039062 C 167.828125 127.039062 147.109375 130.460938 147.109375 136.808594 C 147.109375 136.855469 147.136719 136.898438 147.136719 136.945312 C 147.164062 147.277344 150.761719 157.105469 157.246094 164.746094 C 156.171875 165.671875 155.058594 166.574219 154.078125 167.582031 C 153.695312 168.003906 153.4375 168.316406 153.136719 168.664062 C 152.828125 168.316406 152.550781 167.980469 152.175781 167.59375 C 149.066406 164.351562 145.410156 161.503906 141.304688 159.113281 C 141.070312 158.972656 140.785156 158.960938 140.53125 159.074219 C 140.285156 159.179688 140.097656 159.40625 140.042969 159.675781 C 139.015625 164.398438 138.835938 169.0625 139.503906 173.519531 C 140.125 177.699219 141.113281 179.171875 142.078125 180.148438 C 142.191406 180.265625 142.339844 180.351562 142.464844 180.460938 C 142.464844 180.585938 142.433594 180.71875 142.492188 180.839844 C 145.324219 186.566406 167.710938 189.132812 188.648438 189.132812 C 211.214844 189.132812 235.199219 185.597656 235.199219 179.039062 C 235.199219 175.441406 227.703125 173.054688 210.308594 171.125 Z M 226.878906 142.246094 C 231.753906 144.285156 234.148438 151.121094 232.203125 157.941406 C 231.019531 162.148438 228.472656 165.613281 225.214844 167.433594 C 222.980469 168.6875 220.65625 169.023438 218.476562 168.402344 C 217.335938 168.09375 216.3125 167.480469 215.398438 166.652344 C 216.441406 165.566406 217.421875 164.410156 218.34375 163.210938 C 218.769531 163.484375 219.230469 163.71875 219.765625 163.863281 C 220.289062 164.011719 220.832031 164.085938 221.367188 164.085938 C 222.445312 164.085938 223.539062 163.792969 224.582031 163.199219 C 226.710938 162.003906 228.363281 159.761719 229.125 157.039062 C 230.308594 152.847656 228.964844 148.605469 226.03125 146.921875 C 226.390625 145.386719 226.683594 143.820312 226.878906 142.226562 Z M 227.476562 156.589844 C 226.84375 158.878906 225.480469 160.75 223.746094 161.722656 C 222.585938 162.375 221.367188 162.558594 220.21875 162.230469 C 219.871094 162.136719 219.625 161.949219 219.355469 161.789062 C 222.121094 157.878906 224.253906 153.460938 225.597656 148.683594 C 227.570312 150.140625 228.386719 153.355469 227.476562 156.589844 Z M 148.84375 136.828125 C 148.84375 136.828125 148.824219 136.800781 148.824219 136.78125 C 148.878906 132.976562 164.605469 128.738281 187.167969 128.738281 C 209.726562 128.738281 225.515625 132.988281 225.515625 136.800781 C 225.515625 140.609375 209.769531 144.859375 187.167969 144.859375 C 164.566406 144.859375 149.132812 140.695312 148.84375 136.914062 C 148.84375 136.886719 148.84375 136.859375 148.84375 136.832031 Z M 148.980469 139.910156 C 154.449219 144.253906 171.207031 146.570312 187.167969 146.570312 C 189.308594 146.570312 191.457031 146.523438 193.601562 146.4375 L 193.601562 159.453125 L 188.890625 159.453125 C 188.414062 159.453125 188.035156 159.835938 188.035156 160.308594 L 188.035156 166.660156 C 188.035156 168.621094 189.628906 170.21875 191.589844 170.21875 L 197.316406 170.21875 C 199.277344 170.21875 200.875 168.621094 200.875 166.660156 L 200.875 160.308594 C 200.875 159.835938 200.492188 159.453125 200.019531 159.453125 L 195.308594 159.453125 L 195.308594 146.363281 C 208.539062 145.714844 220.886719 143.5 225.394531 139.875 C 223.90625 160.714844 207.351562 177.203125 187.167969 177.203125 C 180.027344 177.203125 173.085938 175.113281 167.050781 171.183594 C 167.296875 168.269531 167.253906 164.351562 166.25 159.648438 C 166.1875 159.378906 166.007812 159.152344 165.753906 159.046875 C 165.5 158.941406 165.214844 158.953125 164.980469 159.09375 C 162.679688 160.441406 160.550781 161.976562 158.519531 163.613281 C 152.9375 157.019531 149.605469 148.730469 148.972656 139.917969 Z M 199.164062 161.164062 L 199.164062 166.660156 C 199.164062 167.683594 198.335938 168.507812 197.316406 168.507812 L 191.589844 168.507812 C 190.570312 168.507812 189.742188 167.683594 189.742188 166.660156 L 189.742188 161.164062 L 199.171875 161.164062 Z M 155.324219 168.75 C 158.101562 165.898438 161.289062 163.359375 164.8125 161.183594 C 165.78125 166.441406 165.515625 170.597656 165.085938 173.238281 C 164.535156 176.996094 163.734375 178.238281 163.019531 178.945312 C 162.703125 179.257812 162.332031 179.519531 162.003906 179.753906 C 160.382812 180.78125 158.320312 180.914062 156.5 180.265625 L 162.144531 169.144531 C 162.359375 168.722656 162.191406 168.207031 161.769531 167.996094 C 161.351562 167.789062 160.835938 167.949219 160.621094 168.367188 L 154.984375 179.480469 C 154.746094 179.3125 154.515625 179.132812 154.296875 178.9375 C 154.863281 178.164062 155.332031 177.332031 155.585938 176.410156 C 155.84375 175.433594 155.917969 174.460938 155.796875 173.515625 C 155.652344 172.347656 155.15625 171.273438 154.230469 170.003906 C 154.558594 169.609375 154.882812 169.222656 155.324219 168.75 Z M 143.300781 178.933594 C 142.574219 178.203125 141.753906 176.949219 141.199219 173.253906 C 140.617188 169.371094 140.710938 165.3125 141.480469 161.195312 C 145.027344 163.371094 148.210938 165.921875 150.949219 168.769531 C 153.382812 171.3125 153.949219 172.511719 154.105469 173.726562 C 154.195312 174.453125 154.136719 175.207031 153.9375 175.96875 C 153.695312 176.863281 153.230469 177.675781 152.609375 178.378906 C 152.601562 178.378906 152.589844 178.378906 152.582031 178.386719 C 152.554688 178.40625 152.5625 178.445312 152.542969 178.464844 C 151.96875 179.09375 151.246094 179.59375 150.441406 179.980469 L 145.375 168.410156 C 145.1875 167.980469 144.683594 167.796875 144.253906 167.96875 C 143.820312 168.15625 143.628906 168.664062 143.8125 169.097656 L 148.820312 180.527344 C 147.21875 180.847656 145.621094 180.601562 144.300781 179.738281 C 143.933594 179.507812 143.601562 179.230469 143.300781 178.925781 Z M 188.65625 187.417969 C 167.703125 187.417969 153.214844 185.078125 147.125 182.34375 C 147.265625 182.347656 147.398438 182.402344 147.539062 182.402344 C 148.546875 182.402344 149.574219 182.214844 150.574219 181.828125 C 151.5625 181.449219 152.414062 180.859375 153.167969 180.1875 C 153.691406 180.660156 154.257812 181.0625 154.878906 181.375 C 154.90625 181.394531 154.910156 181.433594 154.945312 181.453125 C 154.984375 181.472656 155.023438 181.46875 155.070312 181.480469 C 156.226562 182.042969 157.492188 182.355469 158.769531 182.355469 C 160.234375 182.355469 161.699219 181.96875 162.964844 181.160156 C 163.40625 180.847656 163.847656 180.527344 164.234375 180.148438 C 165.195312 179.191406 166.160156 177.71875 166.789062 173.488281 C 166.808594 173.359375 166.820312 173.179688 166.84375 173.046875 C 172.988281 176.863281 179.980469 178.90625 187.175781 178.90625 C 194.882812 178.90625 202.0625 176.570312 208.171875 172.597656 C 230.199219 174.894531 233.507812 177.617188 233.507812 179.03125 C 233.507812 183.003906 215.09375 187.417969 188.660156 187.417969 Z M 188.65625 187.417969 " fill-opacity="1" fill-rule="nonzero"/></g><g fill="#fff8e2" fill-opacity="1"><g transform="translate(54.420807, 224.929444)"><g><path d="M 28.875 1.546875 C 27.21875 1.546875 25.929688 1.289062 25.015625 0.78125 C 24.109375 0.28125 23.460938 -0.5 23.078125 -1.5625 C 22.703125 -2.625 22.515625 -4.046875 22.515625 -5.828125 L 22.515625 -19.046875 L 13.9375 0 L 13.25 0 L 4.328125 -19.390625 L 4.328125 0 L 2.953125 0 L 2.953125 -22.65625 L 6.21875 -22.65625 L 14.453125 -4.8125 L 22.515625 -22.65625 L 25.609375 -22.65625 L 25.609375 -5.828125 C 25.609375 -3.703125 25.875 -2.054688 26.40625 -0.890625 C 26.945312 0.273438 27.769531 0.859375 28.875 0.859375 Z M 28.875 1.546875 "/></g></g></g><g fill="#fff8e2" fill-opacity="1"><g transform="translate(83.701907, 224.929444)"><g><path d="M 21.359375 0.171875 C 20.253906 0.171875 19.164062 -0.128906 18.09375 -0.734375 C 17.019531 -1.335938 16.160156 -2.523438 15.515625 -4.296875 L 14.65625 -6.515625 L 5.046875 -6.515625 L 2.296875 0 L 0.75 0 L 10.359375 -22.65625 L 11.390625 -22.65625 L 18.953125 -4.296875 C 19.523438 -2.960938 20.0625 -2.050781 20.5625 -1.5625 C 21.0625 -1.070312 21.78125 -0.78125 22.71875 -0.6875 L 22.71875 0 C 22.3125 0.113281 21.859375 0.171875 21.359375 0.171875 Z M 13.96875 -7.890625 L 9.859375 -17.84375 L 5.5625 -7.890625 Z M 13.96875 -7.890625 "/></g></g></g><g fill="#fff8e2" fill-opacity="1"><g transform="translate(105.431026, 224.929444)"><g><path d="M 5.703125 -21.28125 C 2.835938 -21.28125 1.40625 -19.960938 1.40625 -17.328125 L 0.71875 -17.328125 L 0.71875 -19.90625 C 0.71875 -21.738281 1.691406 -22.65625 3.640625 -22.65625 L 19.59375 -22.65625 L 19.59375 -21.28125 L 11.875 -21.28125 L 11.875 0 L 8.78125 0 L 8.78125 -21.28125 Z M 5.703125 -21.28125 "/></g></g></g><g fill="#fff8e2" fill-opacity="1"><g transform="translate(125.375127, 224.929444)"><g><path d="M 12.15625 0.6875 C 10.019531 0.6875 8.144531 0.171875 6.53125 -0.859375 C 4.925781 -1.890625 3.6875 -3.289062 2.8125 -5.0625 C 1.945312 -6.832031 1.515625 -8.804688 1.515625 -10.984375 C 1.515625 -13.222656 1.988281 -15.289062 2.9375 -17.1875 C 3.882812 -19.09375 5.175781 -20.59375 6.8125 -21.6875 C 8.445312 -22.789062 10.226562 -23.34375 12.15625 -23.34375 C 13.988281 -23.34375 15.59375 -23.082031 16.96875 -22.5625 C 18.351562 -22.050781 19.378906 -21.394531 20.046875 -20.59375 C 20.429688 -20.113281 20.671875 -19.476562 20.765625 -18.6875 C 20.859375 -17.894531 20.90625 -16.816406 20.90625 -15.453125 L 20.21875 -15.453125 C 19.78125 -17.671875 18.976562 -19.3125 17.8125 -20.375 C 16.644531 -21.4375 15.101562 -21.96875 13.1875 -21.96875 C 10.707031 -21.96875 8.710938 -21.097656 7.203125 -19.359375 C 5.691406 -17.617188 4.9375 -14.828125 4.9375 -10.984375 C 4.9375 -9.171875 5.226562 -7.488281 5.8125 -5.9375 C 6.394531 -4.382812 7.304688 -3.117188 8.546875 -2.140625 C 9.785156 -1.171875 11.332031 -0.6875 13.1875 -0.6875 C 14.851562 -0.6875 16.3125 -1.085938 17.5625 -1.890625 C 18.8125 -2.691406 19.925781 -3.894531 20.90625 -5.5 L 21.59375 -4.984375 C 20.539062 -2.921875 19.238281 -1.457031 17.6875 -0.59375 C 16.144531 0.257812 14.300781 0.6875 12.15625 0.6875 Z M 12.15625 0.6875 "/></g></g></g><g fill="#fff8e2" fill-opacity="1"><g transform="translate(148.13406, 224.929444)"><g><path d="M 3.640625 -18.53125 C 3.640625 -19.695312 3.476562 -20.5625 3.15625 -21.125 C 2.832031 -21.6875 2.191406 -21.96875 1.234375 -21.96875 L 0.546875 -21.96875 L 0.546875 -22.65625 L 3.640625 -22.65625 C 4.484375 -22.65625 5.113281 -22.546875 5.53125 -22.328125 C 5.957031 -22.109375 6.265625 -21.710938 6.453125 -21.140625 C 6.640625 -20.566406 6.734375 -19.695312 6.734375 -18.53125 L 6.734375 -12.359375 L 17.03125 -12.359375 L 17.03125 -22.65625 L 20.109375 -22.65625 L 20.109375 -4.125 C 20.109375 -2.957031 20.269531 -2.09375 20.59375 -1.53125 C 20.914062 -0.96875 21.554688 -0.6875 22.515625 -0.6875 L 23.203125 -0.6875 L 23.203125 0 L 20.109375 0 C 19.265625 0 18.628906 -0.109375 18.203125 -0.328125 C 17.785156 -0.546875 17.484375 -0.941406 17.296875 -1.515625 C 17.117188 -2.085938 17.03125 -2.957031 17.03125 -4.125 L 17.03125 -10.984375 L 6.734375 -10.984375 L 6.734375 0 L 3.640625 0 Z M 3.640625 -18.53125 "/></g></g></g><g fill="#fff8e2" fill-opacity="1"><g transform="translate(171.854152, 224.929444)"><g><path d="M 21.359375 0.171875 C 20.253906 0.171875 19.164062 -0.128906 18.09375 -0.734375 C 17.019531 -1.335938 16.160156 -2.523438 15.515625 -4.296875 L 14.65625 -6.515625 L 5.046875 -6.515625 L 2.296875 0 L 0.75 0 L 10.359375 -22.65625 L 11.390625 -22.65625 L 18.953125 -4.296875 C 19.523438 -2.960938 20.0625 -2.050781 20.5625 -1.5625 C 21.0625 -1.070312 21.78125 -0.78125 22.71875 -0.6875 L 22.71875 0 C 22.3125 0.113281 21.859375 0.171875 21.359375 0.171875 Z M 13.96875 -7.890625 L 9.859375 -17.84375 L 5.5625 -7.890625 Z M 13.96875 -7.890625 "/></g></g></g><g fill="#fff8e2" fill-opacity="1"><g transform="translate(193.583271, 224.929444)"><g/></g></g><g fill="#fff8e2" fill-opacity="1"><g transform="translate(202.09641, 224.929444)"><g><path d="M 3.640625 -18.53125 C 3.640625 -19.695312 3.476562 -20.5625 3.15625 -21.125 C 2.832031 -21.6875 2.191406 -21.96875 1.234375 -21.96875 L 0.546875 -21.96875 L 0.546875 -22.65625 L 9.46875 -22.65625 C 11.96875 -22.65625 14.140625 -22.242188 15.984375 -21.421875 C 17.828125 -20.597656 18.75 -19.007812 18.75 -16.65625 C 18.75 -15.570312 18.378906 -14.59375 17.640625 -13.71875 C 16.910156 -12.851562 15.789062 -12.171875 14.28125 -11.671875 C 16.382812 -11.328125 17.851562 -10.703125 18.6875 -9.796875 C 19.519531 -8.890625 19.9375 -7.679688 19.9375 -6.171875 C 19.9375 -3.867188 19.023438 -2.265625 17.203125 -1.359375 C 15.390625 -0.453125 13.15625 0 10.5 0 L 3.640625 0 Z M 9.984375 -12.1875 C 10.921875 -12.1875 11.804688 -12.363281 12.640625 -12.71875 C 13.484375 -13.070312 14.164062 -13.597656 14.6875 -14.296875 C 15.21875 -14.992188 15.484375 -15.835938 15.484375 -16.828125 C 15.484375 -17.847656 15.171875 -18.707031 14.546875 -19.40625 C 13.929688 -20.101562 13.148438 -20.617188 12.203125 -20.953125 C 11.253906 -21.285156 10.285156 -21.453125 9.296875 -21.453125 C 8.492188 -21.453125 7.640625 -21.335938 6.734375 -21.109375 L 6.734375 -12.1875 Z M 9.984375 -1.203125 C 12.066406 -1.203125 13.675781 -1.613281 14.8125 -2.4375 C 15.945312 -3.257812 16.515625 -4.445312 16.515625 -6 C 16.515625 -7.5625 15.957031 -8.753906 14.84375 -9.578125 C 13.738281 -10.398438 12.117188 -10.8125 9.984375 -10.8125 L 6.734375 -10.8125 L 6.734375 -1.6875 C 7.828125 -1.363281 8.910156 -1.203125 9.984375 -1.203125 Z M 9.984375 -1.203125 "/></g></g></g><g fill="#fff8e2" fill-opacity="1"><g transform="translate(223.379271, 224.929444)"><g><path d="M 3.640625 -18.53125 C 3.640625 -19.695312 3.476562 -20.5625 3.15625 -21.125 C 2.832031 -21.6875 2.191406 -21.96875 1.234375 -21.96875 L 0.546875 -21.96875 L 0.546875 -22.65625 L 3.640625 -22.65625 C 4.484375 -22.65625 5.113281 -22.546875 5.53125 -22.328125 C 5.957031 -22.109375 6.265625 -21.710938 6.453125 -21.140625 C 6.640625 -20.566406 6.734375 -19.695312 6.734375 -18.53125 L 6.734375 -1.375 L 18.921875 -1.375 L 18.921875 0 L 3.640625 0 Z M 3.640625 -18.53125 "/></g></g></g><g fill="#fff8e2" fill-opacity="1"><g transform="translate(242.465192, 224.929444)"><g><path d="M 12.21875 0.6875 C 10.09375 0.6875 8.222656 0.160156 6.609375 -0.890625 C 4.992188 -1.941406 3.75 -3.382812 2.875 -5.21875 C 2.007812 -7.050781 1.578125 -9.085938 1.578125 -11.328125 C 1.578125 -13.566406 2.007812 -15.601562 2.875 -17.4375 C 3.75 -19.269531 4.992188 -20.710938 6.609375 -21.765625 C 8.222656 -22.816406 10.09375 -23.34375 12.21875 -23.34375 C 14.34375 -23.34375 16.210938 -22.816406 17.828125 -21.765625 C 19.441406 -20.710938 20.679688 -19.269531 21.546875 -17.4375 C 22.421875 -15.601562 22.859375 -13.566406 22.859375 -11.328125 C 22.859375 -9.085938 22.421875 -7.050781 21.546875 -5.21875 C 20.679688 -3.382812 19.441406 -1.941406 17.828125 -0.890625 C 16.210938 0.160156 14.34375 0.6875 12.21875 0.6875 Z M 12.21875 -0.6875 C 13.707031 -0.6875 14.992188 -1.117188 16.078125 -1.984375 C 17.171875 -2.859375 18.003906 -4.085938 18.578125 -5.671875 C 19.148438 -7.265625 19.4375 -9.148438 19.4375 -11.328125 C 19.4375 -13.503906 19.148438 -15.382812 18.578125 -16.96875 C 18.003906 -18.5625 17.171875 -19.789062 16.078125 -20.65625 C 14.992188 -21.53125 13.707031 -21.96875 12.21875 -21.96875 C 10.726562 -21.96875 9.441406 -21.53125 8.359375 -20.65625 C 7.273438 -19.789062 6.445312 -18.5625 5.875 -16.96875 C 5.300781 -15.382812 5.015625 -13.503906 5.015625 -11.328125 C 5.015625 -9.148438 5.300781 -7.265625 5.875 -5.671875 C 6.445312 -4.085938 7.273438 -2.859375 8.359375 -1.984375 C 9.441406 -1.117188 10.726562 -0.6875 12.21875 -0.6875 Z M 12.21875 -0.6875 "/></g></g></g><g fill="#fff8e2" fill-opacity="1"><g transform="translate(266.837509, 224.929444)"><g><path d="M 12.21875 0.6875 C 10.09375 0.6875 8.222656 0.160156 6.609375 -0.890625 C 4.992188 -1.941406 3.75 -3.382812 2.875 -5.21875 C 2.007812 -7.050781 1.578125 -9.085938 1.578125 -11.328125 C 1.578125 -13.566406 2.007812 -15.601562 2.875 -17.4375 C 3.75 -19.269531 4.992188 -20.710938 6.609375 -21.765625 C 8.222656 -22.816406 10.09375 -23.34375 12.21875 -23.34375 C 14.34375 -23.34375 16.210938 -22.816406 17.828125 -21.765625 C 19.441406 -20.710938 20.679688 -19.269531 21.546875 -17.4375 C 22.421875 -15.601562 22.859375 -13.566406 22.859375 -11.328125 C 22.859375 -9.085938 22.421875 -7.050781 21.546875 -5.21875 C 20.679688 -3.382812 19.441406 -1.941406 17.828125 -0.890625 C 16.210938 0.160156 14.34375 0.6875 12.21875 0.6875 Z M 12.21875 -0.6875 C 13.707031 -0.6875 14.992188 -1.117188 16.078125 -1.984375 C 17.171875 -2.859375 18.003906 -4.085938 18.578125 -5.671875 C 19.148438 -7.265625 19.4375 -9.148438 19.4375 -11.328125 C 19.4375 -13.503906 19.148438 -15.382812 18.578125 -16.96875 C 18.003906 -18.5625 17.171875 -19.789062 16.078125 -20.65625 C 14.992188 -21.53125 13.707031 -21.96875 12.21875 -21.96875 C 10.726562 -21.96875 9.441406 -21.53125 8.359375 -20.65625 C 7.273438 -19.789062 6.445312 -18.5625 5.875 -16.96875 C 5.300781 -15.382812 5.015625 -13.503906 5.015625 -11.328125 C 5.015625 -9.148438 5.300781 -7.265625 5.875 -5.671875 C 6.445312 -4.085938 7.273438 -2.859375 8.359375 -1.984375 C 9.441406 -1.117188 10.726562 -0.6875 12.21875 -0.6875 Z M 12.21875 -0.6875 "/></g></g></g><g fill="#fff8e2" fill-opacity="1"><g transform="translate(291.20984, 224.929444)"><g><path d="M 28.875 1.546875 C 27.21875 1.546875 25.929688 1.289062 25.015625 0.78125 C 24.109375 0.28125 23.460938 -0.5 23.078125 -1.5625 C 22.703125 -2.625 22.515625 -4.046875 22.515625 -5.828125 L 22.515625 -19.046875 L 13.9375 0 L 13.25 0 L 4.328125 -19.390625 L 4.328125 0 L 2.953125 0 L 2.953125 -22.65625 L 6.21875 -22.65625 L 14.453125 -4.8125 L 22.515625 -22.65625 L 25.609375 -22.65625 L 25.609375 -5.828125 C 25.609375 -3.703125 25.875 -2.054688 26.40625 -0.890625 C 26.945312 0.273438 27.769531 0.859375 28.875 0.859375 Z M 28.875 1.546875 "/></g></g></g><g fill="#fff8e2" fill-opacity="1"><g transform="translate(113.752264, 245.742699)"><g><path d="M 5.734375 -2.171875 C 5.734375 -1.453125 5.472656 -0.890625 4.953125 -0.484375 C 4.429688 -0.0859375 3.722656 0.109375 2.828125 0.109375 C 1.859375 0.109375 1.113281 -0.015625 0.59375 -0.265625 L 0.59375 -1.171875 C 0.925781 -1.035156 1.289062 -0.925781 1.6875 -0.84375 C 2.082031 -0.757812 2.472656 -0.71875 2.859375 -0.71875 C 3.492188 -0.71875 3.96875 -0.835938 4.28125 -1.078125 C 4.601562 -1.316406 4.765625 -1.648438 4.765625 -2.078125 C 4.765625 -2.359375 4.707031 -2.585938 4.59375 -2.765625 C 4.476562 -2.953125 4.285156 -3.117188 4.015625 -3.265625 C 3.753906 -3.421875 3.351562 -3.597656 2.8125 -3.796875 C 2.050781 -4.066406 1.507812 -4.390625 1.1875 -4.765625 C 0.863281 -5.140625 0.703125 -5.625 0.703125 -6.21875 C 0.703125 -6.851562 0.9375 -7.351562 1.40625 -7.71875 C 1.875 -8.09375 2.5 -8.28125 3.28125 -8.28125 C 4.09375 -8.28125 4.835938 -8.128906 5.515625 -7.828125 L 5.234375 -7.015625 C 4.554688 -7.296875 3.898438 -7.4375 3.265625 -7.4375 C 2.753906 -7.4375 2.359375 -7.328125 2.078125 -7.109375 C 1.796875 -6.890625 1.65625 -6.585938 1.65625 -6.203125 C 1.65625 -5.921875 1.707031 -5.691406 1.8125 -5.515625 C 1.914062 -5.335938 2.09375 -5.171875 2.34375 -5.015625 C 2.59375 -4.867188 2.972656 -4.703125 3.484375 -4.515625 C 4.335938 -4.210938 4.925781 -3.882812 5.25 -3.53125 C 5.570312 -3.1875 5.734375 -2.734375 5.734375 -2.171875 Z M 5.734375 -2.171875 "/></g></g></g><g fill="#fff8e2" fill-opacity="1"><g transform="translate(126.277268, 245.742699)"><g><path d="M 6.25 0 L 5.234375 -2.59375 L 1.96875 -2.59375 L 0.953125 0 L 0 0 L 3.234375 -8.203125 L 4.03125 -8.203125 L 7.234375 0 Z M 4.9375 -3.453125 L 4 -5.984375 C 3.875 -6.304688 3.742188 -6.695312 3.609375 -7.15625 C 3.523438 -6.800781 3.410156 -6.410156 3.265625 -5.984375 L 2.296875 -3.453125 Z M 4.9375 -3.453125 "/></g></g></g><g fill="#fff8e2" fill-opacity="1"><g transform="translate(139.762881, 245.742699)"><g><path d="M 1.125 0 L 1.125 -8.171875 L 2.078125 -8.171875 L 2.078125 -0.859375 L 5.671875 -0.859375 L 5.671875 0 Z M 1.125 0 "/></g></g></g><g fill="#fff8e2" fill-opacity="1"><g transform="translate(151.94721, 245.742699)"><g><path d="M 8.203125 -4.09375 C 8.203125 -2.789062 7.875 -1.765625 7.21875 -1.015625 C 6.5625 -0.265625 5.644531 0.109375 4.46875 0.109375 C 3.257812 0.109375 2.328125 -0.253906 1.671875 -0.984375 C 1.023438 -1.722656 0.703125 -2.765625 0.703125 -4.109375 C 0.703125 -5.429688 1.023438 -6.457031 1.671875 -7.1875 C 2.328125 -7.925781 3.257812 -8.296875 4.46875 -8.296875 C 5.644531 -8.296875 6.5625 -7.921875 7.21875 -7.171875 C 7.875 -6.429688 8.203125 -5.40625 8.203125 -4.09375 Z M 1.703125 -4.09375 C 1.703125 -2.988281 1.9375 -2.148438 2.40625 -1.578125 C 2.875 -1.003906 3.5625 -0.71875 4.46875 -0.71875 C 5.363281 -0.71875 6.039062 -1 6.5 -1.5625 C 6.96875 -2.132812 7.203125 -2.976562 7.203125 -4.09375 C 7.203125 -5.1875 6.972656 -6.015625 6.515625 -6.578125 C 6.054688 -7.148438 5.375 -7.4375 4.46875 -7.4375 C 3.5625 -7.4375 2.875 -7.148438 2.40625 -6.578125 C 1.9375 -6.015625 1.703125 -5.1875 1.703125 -4.09375 Z M 1.703125 -4.09375 "/></g></g></g><g fill="#fff8e2" fill-opacity="1"><g transform="translate(167.102725, 245.742699)"><g><path d="M 7.5 0 L 6.421875 0 L 1.953125 -6.859375 L 1.90625 -6.859375 C 1.96875 -6.046875 2 -5.304688 2 -4.640625 L 2 0 L 1.125 0 L 1.125 -8.171875 L 2.1875 -8.171875 L 6.640625 -1.34375 L 6.6875 -1.34375 C 6.675781 -1.4375 6.65625 -1.753906 6.625 -2.296875 C 6.601562 -2.847656 6.597656 -3.242188 6.609375 -3.484375 L 6.609375 -8.171875 L 7.5 -8.171875 Z M 7.5 0 "/></g></g></g><g fill="#fff8e2" fill-opacity="1"><g transform="translate(181.973403, 245.742699)"><g/></g></g><g fill="#fff8e2" fill-opacity="1"><g transform="translate(191.192129, 245.742699)"><g><path d="M 7.640625 -4.15625 C 7.640625 -2.8125 7.269531 -1.78125 6.53125 -1.0625 C 5.800781 -0.351562 4.753906 0 3.390625 0 L 1.125 0 L 1.125 -8.171875 L 3.625 -8.171875 C 4.894531 -8.171875 5.878906 -7.816406 6.578125 -7.109375 C 7.285156 -6.398438 7.640625 -5.414062 7.640625 -4.15625 Z M 6.640625 -4.125 C 6.640625 -5.1875 6.367188 -5.988281 5.828125 -6.53125 C 5.296875 -7.070312 4.503906 -7.34375 3.453125 -7.34375 L 2.078125 -7.34375 L 2.078125 -0.828125 L 3.234375 -0.828125 C 4.359375 -0.828125 5.207031 -1.101562 5.78125 -1.65625 C 6.351562 -2.207031 6.640625 -3.03125 6.640625 -4.125 Z M 6.640625 -4.125 "/></g></g></g><g fill="#fff8e2" fill-opacity="1"><g transform="translate(205.777982, 245.742699)"><g><path d="M 5.671875 0 L 1.125 0 L 1.125 -8.171875 L 5.671875 -8.171875 L 5.671875 -7.328125 L 2.078125 -7.328125 L 2.078125 -4.6875 L 5.453125 -4.6875 L 5.453125 -3.859375 L 2.078125 -3.859375 L 2.078125 -0.84375 L 5.671875 -0.84375 Z M 5.671875 0 "/></g></g></g><g fill="#fff8e2" fill-opacity="1"><g transform="translate(218.386768, 245.742699)"><g/></g></g><g fill="#fff8e2" fill-opacity="1"><g transform="translate(227.605488, 245.742699)"><g><path d="M 3.640625 0 L 2.6875 0 L 2.6875 -7.328125 L 0.09375 -7.328125 L 0.09375 -8.171875 L 6.21875 -8.171875 L 6.21875 -7.328125 L 3.640625 -7.328125 Z M 3.640625 0 "/></g></g></g><g fill="#fff8e2" fill-opacity="1"><g transform="translate(240.180765, 245.742699)"><g><path d="M 7.328125 0 L 6.375 0 L 6.375 -3.84375 L 2.078125 -3.84375 L 2.078125 0 L 1.125 0 L 1.125 -8.171875 L 2.078125 -8.171875 L 2.078125 -4.6875 L 6.375 -4.6875 L 6.375 -8.171875 L 7.328125 -8.171875 Z M 7.328125 0 "/></g></g></g><g fill="#fff8e2" fill-opacity="1"><g transform="translate(254.867147, 245.742699)"><g><path d="M 5.671875 0 L 1.125 0 L 1.125 -8.171875 L 5.671875 -8.171875 L 5.671875 -7.328125 L 2.078125 -7.328125 L 2.078125 -4.6875 L 5.453125 -4.6875 L 5.453125 -3.859375 L 2.078125 -3.859375 L 2.078125 -0.84375 L 5.671875 -0.84375 Z M 2.546875 -8.953125 C 2.734375 -9.191406 2.925781 -9.472656 3.125 -9.796875 C 3.332031 -10.128906 3.5 -10.414062 3.625 -10.65625 L 4.75 -10.65625 L 4.75 -10.53125 C 4.582031 -10.289062 4.335938 -9.992188 4.015625 -9.640625 C 3.691406 -9.285156 3.410156 -9.015625 3.171875 -8.828125 L 2.546875 -8.828125 Z M 2.546875 -8.953125 "/></g></g></g></svg>