<svg xmlns="http://www.w3.org/2000/svg" xmlns:xlink="http://www.w3.org/1999/xlink" width="500" zoomAndPan="magnify" viewBox="0 0 375 149.999998" height="200" preserveAspectRatio="xMidYMid meet" version="1.0"><defs><g/><clipPath id="d9d6a375d1"><path d="M 134.351562 17.273438 L 240 17.273438 L 240 85.523438 L 134.351562 85.523438 Z M 134.351562 17.273438 " clip-rule="nonzero"/></clipPath></defs><path fill="#8ab545" d="M 187.140625 33.710938 C 188.363281 33.710938 217.09375 33.644531 217.09375 28.023438 C 217.09375 22.402344 188.363281 22.332031 187.140625 22.332031 C 185.914062 22.332031 157.1875 22.398438 157.1875 28.023438 C 157.1875 33.652344 185.914062 33.710938 187.140625 33.710938 Z M 187.140625 24.199219 C 204.820312 24.199219 214.609375 26.632812 215.222656 28.023438 C 214.601562 29.417969 204.8125 31.851562 187.140625 31.851562 C 169.46875 31.851562 159.527344 29.382812 159.042969 28.0625 C 159.527344 26.675781 169.332031 24.203125 187.140625 24.203125 Z M 187.140625 24.199219 " fill-opacity="1" fill-rule="nonzero"/><g clip-path="url(#d9d6a375d1)"><path fill="#8ab545" d="M 212.429688 65.511719 C 213.902344 64.410156 215.292969 63.214844 216.628906 61.929688 C 217.867188 63.066406 219.304688 63.929688 220.84375 64.34375 C 221.78125 64.613281 222.746094 64.746094 223.714844 64.746094 C 225.683594 64.746094 227.679688 64.199219 229.613281 63.113281 C 233.601562 60.882812 236.707031 56.6875 238.128906 51.621094 C 240.628906 42.898438 237.375 34.375 230.734375 32.019531 C 230.84375 30.707031 230.925781 29.386719 230.925781 28.046875 C 230.925781 28.011719 230.886719 27.988281 230.886719 27.953125 C 230.726562 21.070312 208.28125 17.351562 187.148438 17.351562 C 166.015625 17.351562 143.378906 21.09375 143.378906 28.023438 C 143.378906 28.074219 143.40625 28.128906 143.40625 28.179688 C 143.4375 39.464844 147.367188 50.203125 154.453125 58.546875 C 153.277344 59.5625 152.0625 60.546875 150.988281 61.648438 C 150.574219 62.105469 150.289062 62.449219 149.960938 62.828125 C 149.625 62.449219 149.320312 62.085938 148.910156 61.660156 C 145.515625 58.117188 141.519531 55.003906 137.035156 52.394531 C 136.78125 52.242188 136.46875 52.226562 136.191406 52.351562 C 135.921875 52.46875 135.714844 52.714844 135.65625 53.007812 C 134.535156 58.167969 134.339844 63.265625 135.066406 68.136719 C 135.746094 72.699219 136.824219 74.308594 137.882812 75.375 C 138.003906 75.503906 138.164062 75.601562 138.304688 75.714844 C 138.304688 75.855469 138.269531 76 138.332031 76.132812 C 141.425781 82.386719 165.882812 85.195312 188.757812 85.195312 C 213.414062 85.195312 239.613281 81.328125 239.613281 74.164062 C 239.613281 70.234375 231.425781 67.625 212.421875 65.519531 Z M 230.523438 33.964844 C 235.851562 36.195312 238.46875 43.660156 236.339844 51.113281 C 235.050781 55.710938 232.265625 59.496094 228.707031 61.484375 C 226.265625 62.855469 223.730469 63.222656 221.34375 62.542969 C 220.097656 62.207031 218.984375 61.539062 217.984375 60.632812 C 219.121094 59.445312 220.195312 58.183594 221.199219 56.871094 C 221.667969 57.171875 222.167969 57.425781 222.753906 57.585938 C 223.328125 57.746094 223.917969 57.828125 224.503906 57.828125 C 225.683594 57.828125 226.878906 57.507812 228.015625 56.855469 C 230.339844 55.550781 232.148438 53.101562 232.980469 50.128906 C 234.269531 45.550781 232.804688 40.914062 229.597656 39.078125 C 229.992188 37.398438 230.3125 35.6875 230.523438 33.945312 Z M 231.179688 49.640625 C 230.488281 52.140625 229 54.183594 227.105469 55.246094 C 225.835938 55.960938 224.503906 56.15625 223.25 55.800781 C 222.867188 55.699219 222.597656 55.492188 222.308594 55.320312 C 225.324219 51.046875 227.660156 46.222656 229.125 41 C 231.28125 42.589844 232.171875 46.105469 231.179688 49.640625 Z M 145.273438 28.046875 C 145.273438 28.046875 145.25 28.019531 145.25 27.996094 C 145.308594 23.839844 162.492188 19.210938 187.140625 19.210938 C 211.789062 19.210938 229.035156 23.855469 229.035156 28.019531 C 229.035156 32.179688 211.832031 36.824219 187.140625 36.824219 C 162.449219 36.824219 145.585938 32.273438 145.273438 28.140625 C 145.273438 28.113281 145.273438 28.082031 145.273438 28.054688 Z M 145.417969 31.414062 C 151.398438 36.160156 169.703125 38.691406 187.140625 38.691406 C 189.480469 38.691406 191.828125 38.640625 194.167969 38.542969 L 194.167969 52.765625 L 189.019531 52.765625 C 188.503906 52.765625 188.089844 53.183594 188.089844 53.699219 L 188.089844 60.640625 C 188.089844 62.785156 189.832031 64.527344 191.972656 64.527344 L 198.230469 64.527344 C 200.371094 64.527344 202.113281 62.785156 202.113281 60.640625 L 202.113281 53.699219 C 202.113281 53.183594 201.699219 52.765625 201.179688 52.765625 L 196.035156 52.765625 L 196.035156 38.464844 C 210.492188 37.757812 223.976562 35.335938 228.90625 31.378906 C 227.28125 54.144531 209.191406 72.160156 187.140625 72.160156 C 179.339844 72.160156 171.757812 69.878906 165.160156 65.582031 C 165.429688 62.398438 165.386719 58.117188 164.285156 52.980469 C 164.21875 52.6875 164.023438 52.4375 163.746094 52.324219 C 163.46875 52.207031 163.15625 52.21875 162.902344 52.375 C 160.386719 53.847656 158.058594 55.523438 155.84375 57.308594 C 149.742188 50.105469 146.105469 41.050781 145.414062 31.421875 Z M 200.246094 54.632812 L 200.246094 60.640625 C 200.246094 61.757812 199.34375 62.660156 198.230469 62.660156 L 191.972656 62.660156 C 190.859375 62.660156 189.953125 61.757812 189.953125 60.640625 L 189.953125 54.632812 L 200.253906 54.632812 Z M 152.351562 62.921875 C 155.386719 59.808594 158.871094 57.03125 162.71875 54.65625 C 163.777344 60.398438 163.484375 64.941406 163.019531 67.828125 C 162.414062 71.933594 161.539062 73.289062 160.757812 74.0625 C 160.414062 74.402344 160.007812 74.6875 159.648438 74.945312 C 157.878906 76.066406 155.625 76.210938 153.636719 75.503906 L 159.804688 63.351562 C 160.035156 62.894531 159.855469 62.332031 159.394531 62.097656 C 158.933594 61.871094 158.375 62.046875 158.140625 62.507812 L 151.980469 74.644531 C 151.71875 74.460938 151.46875 74.265625 151.230469 74.054688 C 151.847656 73.207031 152.359375 72.296875 152.636719 71.292969 C 152.921875 70.226562 153 69.164062 152.871094 68.128906 C 152.710938 66.851562 152.171875 65.679688 151.15625 64.292969 C 151.515625 63.863281 151.871094 63.441406 152.351562 62.921875 Z M 139.214844 74.046875 C 138.421875 73.253906 137.523438 71.882812 136.917969 67.84375 C 136.285156 63.601562 136.386719 59.167969 137.226562 54.671875 C 141.105469 57.046875 144.582031 59.832031 147.570312 62.945312 C 150.230469 65.722656 150.851562 67.035156 151.019531 68.359375 C 151.121094 69.15625 151.054688 69.980469 150.835938 70.808594 C 150.574219 71.789062 150.0625 72.675781 149.386719 73.441406 C 149.378906 73.441406 149.363281 73.441406 149.355469 73.449219 C 149.328125 73.472656 149.335938 73.515625 149.3125 73.535156 C 148.683594 74.222656 147.898438 74.769531 147.015625 75.191406 L 141.484375 62.550781 C 141.277344 62.085938 140.726562 61.878906 140.257812 62.070312 C 139.785156 62.273438 139.574219 62.828125 139.777344 63.300781 L 145.246094 75.789062 C 143.496094 76.140625 141.753906 75.871094 140.308594 74.929688 C 139.910156 74.675781 139.542969 74.375 139.214844 74.039062 Z M 188.765625 83.320312 C 165.875 83.320312 150.046875 80.761719 143.394531 77.773438 C 143.546875 77.78125 143.691406 77.835938 143.84375 77.835938 C 144.945312 77.835938 146.066406 77.632812 147.160156 77.210938 C 148.242188 76.796875 149.175781 76.152344 149.996094 75.417969 C 150.566406 75.933594 151.1875 76.371094 151.863281 76.714844 C 151.894531 76.738281 151.898438 76.78125 151.9375 76.800781 C 151.980469 76.824219 152.023438 76.816406 152.074219 76.832031 C 153.335938 77.445312 154.722656 77.785156 156.113281 77.785156 C 157.71875 77.785156 159.3125 77.363281 160.699219 76.480469 C 161.179688 76.140625 161.660156 75.789062 162.085938 75.375 C 163.132812 74.332031 164.191406 72.71875 164.875 68.097656 C 164.898438 67.960938 164.914062 67.761719 164.933594 67.617188 C 171.648438 71.789062 179.289062 74.019531 187.148438 74.019531 C 195.566406 74.019531 203.410156 71.464844 210.089844 67.128906 C 234.152344 69.636719 237.769531 72.609375 237.769531 74.15625 C 237.769531 78.492188 217.648438 83.320312 188.773438 83.320312 Z M 188.765625 83.320312 " fill-opacity="1" fill-rule="nonzero"/></g><g fill="#35384b" fill-opacity="1"><g transform="translate(42.120704, 124.288692)"><g><path d="M 31.53125 1.6875 C 29.738281 1.6875 28.34375 1.410156 27.34375 0.859375 C 26.34375 0.304688 25.632812 -0.546875 25.21875 -1.703125 C 24.800781 -2.867188 24.59375 -4.425781 24.59375 -6.375 L 24.59375 -20.8125 L 15.21875 0 L 14.46875 0 L 4.71875 -21.1875 L 4.71875 0 L 3.21875 0 L 3.21875 -24.75 L 6.78125 -24.75 L 15.78125 -5.25 L 24.59375 -24.75 L 27.96875 -24.75 L 27.96875 -6.375 C 27.96875 -4.050781 28.257812 -2.25 28.84375 -0.96875 C 29.4375 0.300781 30.332031 0.9375 31.53125 0.9375 Z M 31.53125 1.6875 "/></g></g></g><g fill="#35384b" fill-opacity="1"><g transform="translate(74.108169, 124.288692)"><g><path d="M 23.328125 0.1875 C 22.128906 0.1875 20.941406 -0.140625 19.765625 -0.796875 C 18.585938 -1.460938 17.648438 -2.757812 16.953125 -4.6875 L 16.015625 -7.125 L 5.515625 -7.125 L 2.515625 0 L 0.828125 0 L 11.328125 -24.75 L 12.453125 -24.75 L 20.703125 -4.6875 C 21.328125 -3.238281 21.910156 -2.242188 22.453125 -1.703125 C 23.003906 -1.171875 23.796875 -0.851562 24.828125 -0.75 L 24.828125 0 C 24.378906 0.125 23.878906 0.1875 23.328125 0.1875 Z M 15.265625 -8.625 L 10.765625 -19.5 L 6.078125 -8.625 Z M 15.265625 -8.625 "/></g></g></g><g fill="#35384b" fill-opacity="1"><g transform="translate(97.845646, 124.288692)"><g><path d="M 6.21875 -23.25 C 3.09375 -23.25 1.53125 -21.8125 1.53125 -18.9375 L 0.78125 -18.9375 L 0.78125 -21.75 C 0.78125 -23.75 1.84375 -24.75 3.96875 -24.75 L 21.40625 -24.75 L 21.40625 -23.25 L 12.96875 -23.25 L 12.96875 0 L 9.59375 0 L 9.59375 -23.25 Z M 6.21875 -23.25 "/></g></g></g><g fill="#35384b" fill-opacity="1"><g transform="translate(119.633121, 124.288692)"><g><path d="M 13.28125 0.75 C 10.945312 0.75 8.898438 0.1875 7.140625 -0.9375 C 5.378906 -2.0625 4.023438 -3.59375 3.078125 -5.53125 C 2.128906 -7.46875 1.65625 -9.625 1.65625 -12 C 1.65625 -14.445312 2.171875 -16.707031 3.203125 -18.78125 C 4.242188 -20.863281 5.65625 -22.503906 7.4375 -23.703125 C 9.226562 -24.898438 11.175781 -25.5 13.28125 -25.5 C 15.28125 -25.5 17.035156 -25.21875 18.546875 -24.65625 C 20.054688 -24.09375 21.175781 -23.375 21.90625 -22.5 C 22.320312 -21.976562 22.582031 -21.285156 22.6875 -20.421875 C 22.789062 -19.554688 22.84375 -18.375 22.84375 -16.875 L 22.09375 -16.875 C 21.613281 -19.300781 20.734375 -21.09375 19.453125 -22.25 C 18.179688 -23.414062 16.5 -24 14.40625 -24 C 11.695312 -24 9.519531 -23.046875 7.875 -21.140625 C 6.226562 -19.242188 5.40625 -16.195312 5.40625 -12 C 5.40625 -10.019531 5.722656 -8.179688 6.359375 -6.484375 C 6.992188 -4.785156 7.984375 -3.40625 9.328125 -2.34375 C 10.679688 -1.28125 12.375 -0.75 14.40625 -0.75 C 16.226562 -0.75 17.816406 -1.1875 19.171875 -2.0625 C 20.535156 -2.9375 21.757812 -4.25 22.84375 -6 L 23.59375 -5.4375 C 22.4375 -3.1875 21.015625 -1.59375 19.328125 -0.65625 C 17.640625 0.28125 15.625 0.75 13.28125 0.75 Z M 13.28125 0.75 "/></g></g></g><g fill="#35384b" fill-opacity="1"><g transform="translate(144.495596, 124.288692)"><g><path d="M 3.96875 -20.25 C 3.96875 -21.519531 3.789062 -22.460938 3.4375 -23.078125 C 3.09375 -23.691406 2.394531 -24 1.34375 -24 L 0.59375 -24 L 0.59375 -24.75 L 3.96875 -24.75 C 4.894531 -24.75 5.585938 -24.628906 6.046875 -24.390625 C 6.515625 -24.148438 6.847656 -23.71875 7.046875 -23.09375 C 7.242188 -22.46875 7.34375 -21.519531 7.34375 -20.25 L 7.34375 -13.5 L 18.59375 -13.5 L 18.59375 -24.75 L 21.96875 -24.75 L 21.96875 -4.5 C 21.96875 -3.226562 22.144531 -2.285156 22.5 -1.671875 C 22.851562 -1.054688 23.550781 -0.75 24.59375 -0.75 L 25.34375 -0.75 L 25.34375 0 L 21.96875 0 C 21.050781 0 20.359375 -0.117188 19.890625 -0.359375 C 19.429688 -0.597656 19.097656 -1.03125 18.890625 -1.65625 C 18.691406 -2.28125 18.59375 -3.226562 18.59375 -4.5 L 18.59375 -12 L 7.34375 -12 L 7.34375 0 L 3.96875 0 Z M 3.96875 -20.25 "/></g></g></g><g fill="#35384b" fill-opacity="1"><g transform="translate(170.408065, 124.288692)"><g><path d="M 23.328125 0.1875 C 22.128906 0.1875 20.941406 -0.140625 19.765625 -0.796875 C 18.585938 -1.460938 17.648438 -2.757812 16.953125 -4.6875 L 16.015625 -7.125 L 5.515625 -7.125 L 2.515625 0 L 0.828125 0 L 11.328125 -24.75 L 12.453125 -24.75 L 20.703125 -4.6875 C 21.328125 -3.238281 21.910156 -2.242188 22.453125 -1.703125 C 23.003906 -1.171875 23.796875 -0.851562 24.828125 -0.75 L 24.828125 0 C 24.378906 0.125 23.878906 0.1875 23.328125 0.1875 Z M 15.265625 -8.625 L 10.765625 -19.5 L 6.078125 -8.625 Z M 15.265625 -8.625 "/></g></g></g><g fill="#35384b" fill-opacity="1"><g transform="translate(194.145542, 124.288692)"><g/></g></g><g fill="#35384b" fill-opacity="1"><g transform="translate(203.445526, 124.288692)"><g><path d="M 3.96875 -20.25 C 3.96875 -21.519531 3.789062 -22.460938 3.4375 -23.078125 C 3.09375 -23.691406 2.394531 -24 1.34375 -24 L 0.59375 -24 L 0.59375 -24.75 L 10.34375 -24.75 C 13.070312 -24.75 15.441406 -24.296875 17.453125 -23.390625 C 19.460938 -22.492188 20.46875 -20.757812 20.46875 -18.1875 C 20.46875 -17.007812 20.066406 -15.945312 19.265625 -15 C 18.472656 -14.050781 17.25 -13.300781 15.59375 -12.75 C 17.894531 -12.375 19.5 -11.691406 20.40625 -10.703125 C 21.320312 -9.710938 21.78125 -8.394531 21.78125 -6.75 C 21.78125 -4.226562 20.785156 -2.472656 18.796875 -1.484375 C 16.816406 -0.492188 14.375 0 11.46875 0 L 3.96875 0 Z M 10.90625 -13.3125 C 11.9375 -13.3125 12.90625 -13.503906 13.8125 -13.890625 C 14.726562 -14.273438 15.472656 -14.847656 16.046875 -15.609375 C 16.617188 -16.378906 16.90625 -17.300781 16.90625 -18.375 C 16.90625 -19.5 16.566406 -20.441406 15.890625 -21.203125 C 15.222656 -21.960938 14.367188 -22.523438 13.328125 -22.890625 C 12.296875 -23.253906 11.238281 -23.4375 10.15625 -23.4375 C 9.28125 -23.4375 8.34375 -23.3125 7.34375 -23.0625 L 7.34375 -13.3125 Z M 10.90625 -1.3125 C 13.1875 -1.3125 14.941406 -1.757812 16.171875 -2.65625 C 17.410156 -3.5625 18.03125 -4.863281 18.03125 -6.5625 C 18.03125 -8.257812 17.425781 -9.554688 16.21875 -10.453125 C 15.007812 -11.359375 13.238281 -11.8125 10.90625 -11.8125 L 7.34375 -11.8125 L 7.34375 -1.84375 C 8.550781 -1.488281 9.738281 -1.3125 10.90625 -1.3125 Z M 10.90625 -1.3125 "/></g></g></g><g fill="#35384b" fill-opacity="1"><g transform="translate(226.695499, 124.288692)"><g><path d="M 3.96875 -20.25 C 3.96875 -21.519531 3.789062 -22.460938 3.4375 -23.078125 C 3.09375 -23.691406 2.394531 -24 1.34375 -24 L 0.59375 -24 L 0.59375 -24.75 L 3.96875 -24.75 C 4.894531 -24.75 5.585938 -24.628906 6.046875 -24.390625 C 6.515625 -24.148438 6.847656 -23.71875 7.046875 -23.09375 C 7.242188 -22.46875 7.34375 -21.519531 7.34375 -20.25 L 7.34375 -1.5 L 20.65625 -1.5 L 20.65625 0 L 3.96875 0 Z M 3.96875 -20.25 "/></g></g></g><g fill="#35384b" fill-opacity="1"><g transform="translate(247.545474, 124.288692)"><g><path d="M 13.34375 0.75 C 11.019531 0.75 8.976562 0.175781 7.21875 -0.96875 C 5.457031 -2.125 4.097656 -3.703125 3.140625 -5.703125 C 2.191406 -7.703125 1.71875 -9.925781 1.71875 -12.375 C 1.71875 -14.820312 2.191406 -17.046875 3.140625 -19.046875 C 4.097656 -21.046875 5.457031 -22.617188 7.21875 -23.765625 C 8.976562 -24.921875 11.019531 -25.5 13.34375 -25.5 C 15.675781 -25.5 17.722656 -24.921875 19.484375 -23.765625 C 21.242188 -22.617188 22.597656 -21.046875 23.546875 -19.046875 C 24.492188 -17.046875 24.96875 -14.820312 24.96875 -12.375 C 24.96875 -9.925781 24.492188 -7.703125 23.546875 -5.703125 C 22.597656 -3.703125 21.242188 -2.125 19.484375 -0.96875 C 17.722656 0.175781 15.675781 0.75 13.34375 0.75 Z M 13.34375 -0.75 C 14.96875 -0.75 16.375 -1.222656 17.5625 -2.171875 C 18.75 -3.117188 19.65625 -4.460938 20.28125 -6.203125 C 20.90625 -7.941406 21.21875 -10 21.21875 -12.375 C 21.21875 -14.75 20.90625 -16.804688 20.28125 -18.546875 C 19.65625 -20.285156 18.75 -21.628906 17.5625 -22.578125 C 16.375 -23.523438 14.96875 -24 13.34375 -24 C 11.71875 -24 10.3125 -23.523438 9.125 -22.578125 C 7.9375 -21.628906 7.03125 -20.285156 6.40625 -18.546875 C 5.78125 -16.804688 5.46875 -14.75 5.46875 -12.375 C 5.46875 -10 5.78125 -7.941406 6.40625 -6.203125 C 7.03125 -4.460938 7.9375 -3.117188 9.125 -2.171875 C 10.3125 -1.222656 11.71875 -0.75 13.34375 -0.75 Z M 13.34375 -0.75 "/></g></g></g><g fill="#35384b" fill-opacity="1"><g transform="translate(274.170453, 124.288692)"><g><path d="M 13.34375 0.75 C 11.019531 0.75 8.976562 0.175781 7.21875 -0.96875 C 5.457031 -2.125 4.097656 -3.703125 3.140625 -5.703125 C 2.191406 -7.703125 1.71875 -9.925781 1.71875 -12.375 C 1.71875 -14.820312 2.191406 -17.046875 3.140625 -19.046875 C 4.097656 -21.046875 5.457031 -22.617188 7.21875 -23.765625 C 8.976562 -24.921875 11.019531 -25.5 13.34375 -25.5 C 15.675781 -25.5 17.722656 -24.921875 19.484375 -23.765625 C 21.242188 -22.617188 22.597656 -21.046875 23.546875 -19.046875 C 24.492188 -17.046875 24.96875 -14.820312 24.96875 -12.375 C 24.96875 -9.925781 24.492188 -7.703125 23.546875 -5.703125 C 22.597656 -3.703125 21.242188 -2.125 19.484375 -0.96875 C 17.722656 0.175781 15.675781 0.75 13.34375 0.75 Z M 13.34375 -0.75 C 14.96875 -0.75 16.375 -1.222656 17.5625 -2.171875 C 18.75 -3.117188 19.65625 -4.460938 20.28125 -6.203125 C 20.90625 -7.941406 21.21875 -10 21.21875 -12.375 C 21.21875 -14.75 20.90625 -16.804688 20.28125 -18.546875 C 19.65625 -20.285156 18.75 -21.628906 17.5625 -22.578125 C 16.375 -23.523438 14.96875 -24 13.34375 -24 C 11.71875 -24 10.3125 -23.523438 9.125 -22.578125 C 7.9375 -21.628906 7.03125 -20.285156 6.40625 -18.546875 C 5.78125 -16.804688 5.46875 -14.75 5.46875 -12.375 C 5.46875 -10 5.78125 -7.941406 6.40625 -6.203125 C 7.03125 -4.460938 7.9375 -3.117188 9.125 -2.171875 C 10.3125 -1.222656 11.71875 -0.75 13.34375 -0.75 Z M 13.34375 -0.75 "/></g></g></g><g fill="#35384b" fill-opacity="1"><g transform="translate(300.795446, 124.288692)"><g><path d="M 31.53125 1.6875 C 29.738281 1.6875 28.34375 1.410156 27.34375 0.859375 C 26.34375 0.304688 25.632812 -0.546875 25.21875 -1.703125 C 24.800781 -2.867188 24.59375 -4.425781 24.59375 -6.375 L 24.59375 -20.8125 L 15.21875 0 L 14.46875 0 L 4.71875 -21.1875 L 4.71875 0 L 3.21875 0 L 3.21875 -24.75 L 6.78125 -24.75 L 15.78125 -5.25 L 24.59375 -24.75 L 27.96875 -24.75 L 27.96875 -6.375 C 27.96875 -4.050781 28.257812 -2.25 28.84375 -0.96875 C 29.4375 0.300781 30.332031 0.9375 31.53125 0.9375 Z M 31.53125 1.6875 "/></g></g></g></svg>