<svg xmlns="http://www.w3.org/2000/svg" xmlns:xlink="http://www.w3.org/1999/xlink" width="500" zoomAndPan="magnify" viewBox="0 0 375 374.999991" height="500" preserveAspectRatio="xMidYMid meet" version="1.0"><defs><clipPath id="25fc001b78"><path d="M 66.113281 109.8125 L 307 109.8125 L 307 265 L 66.113281 265 Z M 66.113281 109.8125 " clip-rule="nonzero"/></clipPath></defs><path fill="#8ab545" d="M 186.679688 147.351562 C 189.476562 147.351562 255.097656 147.199219 255.097656 134.363281 C 255.097656 121.527344 189.476562 121.359375 186.679688 121.359375 C 183.882812 121.359375 118.261719 121.507812 118.261719 134.363281 C 118.261719 147.21875 183.882812 147.351562 186.679688 147.351562 Z M 186.679688 125.621094 C 227.054688 125.621094 249.417969 131.183594 250.816406 134.363281 C 249.402344 137.542969 227.039062 143.105469 186.679688 143.105469 C 146.316406 143.105469 123.605469 137.460938 122.507812 134.445312 C 123.605469 131.28125 146 125.636719 186.679688 125.636719 Z M 186.679688 125.621094 " fill-opacity="1" fill-rule="nonzero"/><g clip-path="url(#25fc001b78)"><path fill="#8ab545" d="M 244.441406 219.980469 C 247.804688 217.464844 250.984375 214.734375 254.03125 211.804688 C 256.859375 214.402344 260.140625 216.367188 263.65625 217.316406 C 265.800781 217.933594 268 218.230469 270.214844 218.230469 C 274.710938 218.230469 279.273438 216.984375 283.683594 214.503906 C 292.792969 209.40625 299.886719 199.832031 303.132812 188.261719 C 308.84375 168.332031 301.417969 148.867188 286.25 143.488281 C 286.5 140.492188 286.683594 137.476562 286.683594 134.414062 C 286.683594 134.328125 286.597656 134.28125 286.597656 134.195312 C 286.234375 118.480469 234.964844 109.988281 186.695312 109.988281 C 138.425781 109.988281 86.726562 118.527344 86.726562 134.363281 C 86.726562 134.480469 86.792969 134.597656 86.792969 134.710938 C 86.859375 160.488281 95.832031 185.015625 112.015625 204.078125 C 109.335938 206.394531 106.554688 208.640625 104.109375 211.15625 C 103.160156 212.203125 102.511719 212.988281 101.761719 213.851562 C 100.996094 212.988281 100.296875 212.15625 99.363281 211.1875 C 91.605469 203.097656 82.480469 195.988281 72.238281 190.027344 C 71.65625 189.675781 70.941406 189.644531 70.308594 189.925781 C 69.691406 190.191406 69.226562 190.757812 69.09375 191.425781 C 66.527344 203.214844 66.078125 214.851562 67.742188 225.976562 C 69.292969 236.398438 71.757812 240.078125 74.171875 242.507812 C 74.453125 242.808594 74.820312 243.023438 75.136719 243.292969 C 75.136719 243.609375 75.054688 243.941406 75.203125 244.242188 C 82.261719 258.527344 138.125 264.9375 190.375 264.9375 C 246.6875 264.9375 306.53125 256.113281 306.53125 239.746094 C 306.53125 230.769531 287.832031 224.808594 244.421875 219.996094 Z M 285.765625 147.933594 C 297.9375 153.027344 303.914062 170.078125 299.054688 187.09375 C 296.105469 197.601562 289.746094 206.242188 281.621094 210.789062 C 276.042969 213.917969 270.25 214.753906 264.804688 213.203125 C 261.957031 212.4375 259.410156 210.90625 257.128906 208.839844 C 259.726562 206.128906 262.171875 203.246094 264.46875 200.25 C 265.535156 200.933594 266.683594 201.515625 268.015625 201.882812 C 269.332031 202.246094 270.679688 202.429688 272.011719 202.429688 C 274.710938 202.429688 277.441406 201.699219 280.039062 200.214844 C 285.351562 197.234375 289.480469 191.640625 291.378906 184.847656 C 294.324219 174.390625 290.976562 163.800781 283.652344 159.605469 C 284.550781 155.777344 285.285156 151.863281 285.765625 147.882812 Z M 287.265625 183.730469 C 285.683594 189.441406 282.285156 194.105469 277.957031 196.535156 C 275.058594 198.167969 272.011719 198.617188 269.148438 197.800781 C 268.285156 197.570312 267.667969 197.101562 267 196.703125 C 273.894531 186.945312 279.222656 175.921875 282.570312 164 C 287.5 167.632812 289.53125 175.65625 287.265625 183.730469 Z M 91.054688 134.414062 C 91.054688 134.414062 91.003906 134.347656 91.003906 134.296875 C 91.136719 124.804688 130.382812 114.234375 186.679688 114.234375 C 242.972656 114.234375 282.371094 124.839844 282.371094 134.347656 C 282.371094 143.855469 243.074219 154.460938 186.679688 154.460938 C 130.285156 154.460938 91.769531 144.070312 91.054688 134.628906 C 91.054688 134.5625 91.054688 134.496094 91.054688 134.429688 Z M 91.386719 142.105469 C 105.039062 152.945312 146.851562 158.722656 186.679688 158.722656 C 192.023438 158.722656 197.386719 158.605469 202.730469 158.390625 L 202.730469 190.875 L 190.976562 190.875 C 189.792969 190.875 188.84375 191.824219 188.84375 193.007812 L 188.84375 208.859375 C 188.84375 213.753906 192.824219 217.734375 197.71875 217.734375 L 212.003906 217.734375 C 216.898438 217.734375 220.878906 213.753906 220.878906 208.859375 L 220.878906 193.007812 C 220.878906 191.824219 219.929688 190.875 218.746094 190.875 L 206.992188 190.875 L 206.992188 158.207031 C 240.011719 156.589844 270.8125 151.0625 282.070312 142.023438 C 278.355469 194.023438 237.046875 235.164062 186.679688 235.164062 C 168.863281 235.164062 151.546875 229.953125 136.476562 220.148438 C 137.09375 212.871094 136.992188 203.097656 134.480469 191.359375 C 134.328125 190.691406 133.878906 190.125 133.246094 189.859375 C 132.613281 189.59375 131.898438 189.625 131.316406 189.976562 C 125.570312 193.339844 120.257812 197.167969 115.199219 201.25 C 101.261719 184.796875 92.953125 164.117188 91.371094 142.121094 Z M 216.617188 195.136719 L 216.617188 208.859375 C 216.617188 211.40625 214.550781 213.46875 212.003906 213.46875 L 197.71875 213.46875 C 195.171875 213.46875 193.105469 211.40625 193.105469 208.859375 L 193.105469 195.136719 L 216.632812 195.136719 Z M 107.222656 214.070312 C 114.148438 206.960938 122.109375 200.617188 130.898438 195.1875 C 133.3125 208.308594 132.648438 218.683594 131.582031 225.277344 C 130.199219 234.648438 128.203125 237.746094 126.421875 239.511719 C 125.636719 240.292969 124.707031 240.945312 123.890625 241.527344 C 119.84375 244.089844 114.699219 244.421875 110.152344 242.808594 L 124.238281 215.050781 C 124.773438 214.003906 124.355469 212.722656 123.308594 212.1875 C 122.257812 211.671875 120.976562 212.070312 120.441406 213.121094 L 106.371094 240.84375 C 105.773438 240.425781 105.207031 239.976562 104.65625 239.496094 C 106.074219 237.5625 107.238281 235.480469 107.871094 233.183594 C 108.519531 230.753906 108.703125 228.324219 108.40625 225.957031 C 108.039062 223.042969 106.804688 220.363281 104.492188 217.199219 C 105.308594 216.21875 106.125 215.25 107.222656 214.070312 Z M 77.21875 239.476562 C 75.402344 237.664062 73.355469 234.53125 71.972656 225.308594 C 70.523438 215.617188 70.757812 205.496094 72.671875 195.222656 C 81.53125 200.648438 89.472656 207.007812 96.300781 214.121094 C 102.375 220.464844 103.792969 223.460938 104.175781 226.492188 C 104.410156 228.304688 104.257812 230.1875 103.757812 232.085938 C 103.160156 234.316406 101.992188 236.347656 100.445312 238.097656 C 100.429688 238.097656 100.394531 238.097656 100.378906 238.113281 C 100.3125 238.164062 100.328125 238.261719 100.277344 238.3125 C 98.847656 239.878906 97.046875 241.125 95.035156 242.09375 L 82.394531 213.21875 C 81.929688 212.15625 80.664062 211.6875 79.597656 212.121094 C 78.515625 212.585938 78.035156 213.851562 78.5 214.933594 L 90.988281 243.457031 C 86.992188 244.257812 83.011719 243.640625 79.714844 241.492188 C 78.800781 240.910156 77.96875 240.226562 77.21875 239.460938 Z M 190.390625 260.65625 C 138.109375 260.65625 101.960938 254.8125 86.757812 247.988281 C 87.109375 248.003906 87.441406 248.136719 87.789062 248.136719 C 90.304688 248.136719 92.871094 247.671875 95.367188 246.703125 C 97.832031 245.753906 99.960938 244.289062 101.84375 242.609375 C 103.144531 243.789062 104.558594 244.789062 106.105469 245.574219 C 106.171875 245.621094 106.191406 245.722656 106.273438 245.773438 C 106.371094 245.820312 106.472656 245.804688 106.589844 245.839844 C 109.46875 247.238281 112.632812 248.019531 115.8125 248.019531 C 119.476562 248.019531 123.125 247.054688 126.289062 245.039062 C 127.386719 244.257812 128.484375 243.457031 129.449219 242.507812 C 131.847656 240.128906 134.261719 236.449219 135.828125 225.890625 C 135.878906 225.574219 135.910156 225.125 135.960938 224.792969 C 151.296875 234.316406 168.746094 239.410156 186.695312 239.410156 C 205.925781 239.410156 223.84375 233.585938 239.09375 223.675781 C 294.058594 229.40625 302.316406 236.199219 302.316406 239.726562 C 302.316406 249.636719 256.363281 260.65625 190.410156 260.65625 Z M 190.390625 260.65625 " fill-opacity="1" fill-rule="nonzero"/></g></svg>